# xmcd
#
# Track frame offsets: 
#        150
#        35053
#        94026
#        133825
#        158369
#        192978
#        216520
#        240779
#        283162
#
# Disc length: 3840 seconds
#
# Revision: 2
# Processed by: cddbd v1.5.2PL0 Copyright (c) Steve Scherf et al.
# Submitted via: ExactAudioCopyFreeDBPlugin 1.0
#
DISCID=7c0efe09
DTITLE=Monk, Thelonious - Vol. 2 - Six Classic Albums - Disc 1 - Brill
DTITLE=iant Corners and Thelonious in Action
DYEAR=1957
DGENRE=Jazz
TTITLE0=Brilliant Corners (Brilliant Corners LP)
TTITLE1=Ba-Lue Boliver Ba-Lues Are (Brilliant Corners LP)
TTITLE2=Pannonica (Brilliant Corners LP)
TTITLE3=I Surrender Dear (Brilliant Corners LP)
TTITLE4=Bemsha Swing (Brilliant Corners LP)
TTITLE5=Light Blue (Thelonius in Action LP)
TTITLE6=Coming on the Horizon (Thelonius in Action LP)
TTITLE7=Rhythm-a-Ning (Thelonius in Action LP)
TTITLE8=Epistrophy (Theme 1) (Thelonius in Action LP)
EXTD=YEAR: 1957
EXTT0=
EXTT1=
EXTT2=
EXTT3=
EXTT4=
EXTT5=
EXTT6=
EXTT7=
EXTT8=
PLAYORDER=
